<?xml version="1.0" standalone="no"?>
<!DOCTYPE svg PUBLIC "-//W3C//DTD SVG 20010904//EN"
 "http://www.w3.org/TR/2001/REC-SVG-20010904/DTD/svg10.dtd">
<svg version="1.0" xmlns="http://www.w3.org/2000/svg"
 width="1000.000000pt" height="1000.000000pt" viewBox="0 0 1000.000000 1000.000000"
 preserveAspectRatio="xMidYMid meet">
<metadata>
Created by potrace 1.14, written by Peter Selinger 2001-2017
</metadata>
<g transform="translate(0.000000,1000.000000) scale(0.100000,-0.100000)"
fill="#000000" stroke="none">
<path d="M4517 9659 c-12 -7 -15 -21 -11 -67 3 -31 6 -79 6 -107 1 -27 7 -53
12 -57 8 -5 8 -8 1 -8 -6 0 -10 -12 -9 -27 1 -16 3 -28 4 -28 1 0 9 -149 14
-267 1 -26 5 -50 8 -53 3 -4 2 -20 -2 -36 -5 -18 -5 -31 2 -35 6 -4 5 -10 -3
-15 -8 -5 -9 -9 -3 -9 6 0 10 -24 9 -60 0 -33 4 -60 9 -60 4 0 3 -6 -3 -13 -6
-8 -8 -16 -6 -19 11 -10 14 -139 4 -132 -5 3 -16 1 -24 -6 -9 -8 -15 -8 -20 0
-3 6 -11 7 -17 4 -6 -4 -32 -9 -57 -11 -104 -8 -209 -21 -276 -34 -27 -5 -67
-12 -89 -14 -21 -3 -42 -8 -47 -11 -5 -2 -21 -7 -36 -9 -41 -6 -70 -13 -198
-50 -115 -32 -108 -30 -190 -55 -38 -12 -81 -23 -95 -25 -14 -2 -25 -4 -25 -5
0 -6 -194 -47 -200 -42 -3 3 -5 1 -5 -4 0 -5 -15 -10 -32 -11 -33 -1 -78 -9
-110 -19 -10 -3 -18 -15 -19 -27 0 -12 -2 -29 -4 -37 -2 -8 -6 -31 -9 -50 -4
-19 -10 -44 -13 -55 -3 -11 -7 -31 -9 -45 -1 -14 -3 -25 -4 -25 -2 0 -6 -18
-14 -65 -3 -19 -8 -46 -11 -60 -4 -14 -7 -34 -9 -45 -20 -131 -22 -143 -26
-147 -2 -3 -7 -34 -14 -93 -2 -22 -5 -40 -6 -40 -1 0 -3 -11 -5 -25 -2 -14 -6
-41 -9 -60 -7 -40 -15 -99 -21 -150 -2 -19 -7 -55 -11 -80 -3 -25 -7 -58 -9
-75 -1 -16 -4 -30 -5 -30 -1 0 -3 -22 -5 -50 -2 -27 -4 -50 -4 -50 -1 0 -4
-27 -6 -60 -3 -33 -7 -76 -9 -96 -3 -19 -2 -39 2 -45 9 -12 52 -32 77 -36 11
-2 23 -6 26 -11 6 -8 96 -17 212 -21 l78 -2 6 28 c3 16 10 31 14 34 5 3 9 13
9 23 0 10 7 31 14 47 8 15 13 31 10 36 -3 4 -1 8 4 8 5 0 9 6 9 13 2 19 27 81
36 88 5 3 8 9 8 13 -1 11 7 32 50 134 8 17 17 32 21 32 5 0 7 3 6 8 -2 10 13
43 33 72 9 14 18 30 19 35 2 6 13 26 25 45 12 19 30 50 39 68 9 17 21 32 26
32 6 0 10 9 10 20 0 11 4 20 8 20 4 0 28 28 52 62 24 34 53 73 64 87 33 40
170 171 178 171 5 0 17 8 27 18 53 47 176 123 185 114 3 -3 6 -1 6 5 0 9 48
28 59 23 2 -1 7 3 11 9 7 13 222 90 258 93 12 1 22 5 22 8 0 3 17 6 38 8 l38
2 3 -67 c1 -38 2 -81 1 -97 0 -15 5 -35 11 -42 6 -8 7 -14 2 -14 -5 0 -8 -12
-7 -27 1 -16 3 -28 4 -28 1 0 3 -34 5 -75 9 -163 13 -211 18 -217 4 -3 2 -14
-3 -24 -7 -12 -7 -20 0 -24 5 -3 10 -11 10 -16 0 -6 -5 -7 -11 -3 -8 4 -8 1
-2 -12 9 -19 15 -89 17 -221 0 -40 3 -73 6 -73 3 0 6 -26 7 -58 5 -167 7 -201
14 -196 4 2 4 -9 -1 -25 -4 -16 -6 -32 -3 -35 3 -2 7 -44 9 -93 8 -166 11
-200 19 -213 6 -9 4 -11 -4 -5 -10 5 -11 3 -4 -11 4 -11 8 -46 8 -79 0 -33 5
-63 10 -67 6 -5 4 -8 -5 -8 -13 0 -13 -1 0 -10 11 -7 11 -10 2 -10 -7 0 -10
-5 -6 -12 4 -6 8 -41 10 -77 2 -36 4 -67 5 -68 6 -9 4 -30 -4 -40 -6 -8 -6
-13 0 -13 5 0 10 -35 12 -77 1 -43 4 -100 6 -128 6 -69 17 -261 18 -310 1 -22
6 -43 12 -47 6 -5 6 -8 -2 -8 -7 0 -10 -6 -8 -12 2 -7 6 -28 9 -47 4 -27 1
-34 -15 -38 -10 -3 -19 -9 -19 -12 0 -4 -7 -8 -15 -9 -8 -1 -22 -3 -30 -4 -8
-1 -15 -6 -15 -11 0 -5 -7 -7 -15 -3 -8 3 -15 1 -15 -4 0 -6 -7 -10 -16 -10
-9 0 -30 -6 -47 -14 -18 -7 -61 -24 -97 -37 -36 -12 -76 -27 -90 -32 -14 -6
-34 -12 -45 -14 -11 -2 -21 -8 -23 -13 -2 -5 -10 -6 -18 -3 -8 3 -14 0 -14 -6
0 -6 -3 -10 -7 -9 -14 3 -115 -31 -131 -44 -8 -7 -17 -12 -19 -10 -2 1 -24 -6
-49 -18 -26 -11 -48 -20 -50 -20 -4 0 -97 -42 -191 -87 -29 -13 -55 -28 -58
-34 -4 -5 -12 -9 -20 -9 -8 0 -38 -14 -67 -31 -29 -17 -59 -32 -66 -33 -8 -2
-17 -7 -20 -12 -4 -5 -41 -29 -82 -54 -79 -45 -140 -88 -152 -105 -4 -6 -8 -6
-8 -1 0 6 -13 -3 -30 -19 -16 -16 -30 -25 -30 -21 0 5 -13 -6 -29 -23 -16 -17
-32 -31 -36 -31 -27 0 -354 -323 -348 -342 2 -5 -1 -8 -5 -8 -9 0 -69 -88 -71
-102 -1 -5 -10 -17 -21 -28 -11 -11 -20 -27 -20 -35 0 -8 -4 -15 -9 -15 -7 0
-24 -42 -18 -46 1 -1 -5 -10 -14 -20 -9 -11 -20 -30 -24 -44 -4 -14 -12 -31
-18 -38 -6 -8 -13 -23 -14 -35 -2 -12 -9 -25 -16 -29 -6 -4 -9 -8 -5 -8 4 0
-5 -33 -19 -72 -14 -40 -27 -82 -28 -93 -1 -11 -3 -20 -4 -20 -3 0 -8 -22 -16
-70 -3 -22 -9 -51 -11 -65 -3 -14 -8 -43 -12 -65 -9 -54 -8 -441 1 -487 4 -21
10 -55 13 -75 3 -21 12 -64 20 -96 8 -32 12 -63 8 -69 -4 -6 -3 -8 3 -5 7 4
16 -14 23 -46 7 -28 15 -56 19 -62 3 -5 6 -14 7 -20 1 -5 10 -28 20 -50 10
-22 18 -42 19 -45 1 -3 7 -18 14 -35 7 -16 13 -32 13 -35 1 -3 8 -11 15 -18 7
-8 11 -18 8 -23 -4 -5 -2 -9 3 -9 6 0 13 -11 16 -24 3 -14 12 -31 19 -38 6 -7
19 -26 27 -43 24 -50 124 -196 191 -280 61 -78 289 -314 289 -301 0 4 11 -4
24 -18 13 -15 26 -26 30 -26 4 0 18 -10 32 -23 13 -12 33 -30 44 -39 10 -9 33
-24 49 -33 17 -8 31 -19 31 -24 0 -5 11 -12 25 -15 14 -4 25 -10 25 -15 0 -5
13 -14 30 -21 17 -7 30 -16 30 -21 0 -5 5 -9 11 -9 6 0 41 -17 77 -37 37 -21
70 -37 75 -35 4 1 7 -3 7 -9 0 -5 4 -7 10 -4 5 3 10 2 10 -2 0 -7 36 -25 63
-31 4 -1 30 -13 57 -27 27 -14 51 -25 52 -24 2 0 17 -5 33 -11 17 -7 39 -14
49 -16 11 -2 22 -7 25 -12 3 -5 14 -8 24 -6 9 1 17 -2 17 -7 0 -5 3 -8 8 -8 4
1 10 0 15 -1 8 -3 11 -4 57 -14 19 -5 39 -11 45 -14 5 -3 16 -7 25 -8 8 -1 26
-5 40 -9 14 -3 37 -8 51 -9 14 -2 30 -5 35 -8 5 -3 25 -9 44 -12 19 -3 46 -8
60 -10 14 -3 41 -7 60 -10 19 -2 55 -7 80 -11 25 -3 65 -8 90 -10 25 -2 45 -4
45 -5 0 0 49 -3 110 -6 60 -3 111 -7 113 -9 2 -2 6 -41 8 -87 3 -45 7 -117 9
-158 3 -41 6 -100 7 -132 2 -35 7 -54 13 -50 5 3 4 -1 -2 -10 -7 -8 -10 -18
-7 -21 4 -3 8 -44 9 -91 2 -47 6 -90 10 -96 3 -5 0 -10 -7 -10 -8 0 -9 -3 -3
-8 6 -4 10 -26 10 -49 -1 -24 3 -43 8 -43 5 0 5 -6 -1 -13 -7 -8 -7 -18 -2
-27 6 -9 5 -17 -3 -22 -8 -6 -9 -10 -1 -16 6 -4 11 -32 12 -62 3 -97 3 -96 36
-108 17 -6 42 -13 56 -16 14 -3 36 -7 50 -10 44 -10 233 -21 302 -17 25 1 27
4 23 39 -3 20 -7 84 -10 142 -3 58 -8 141 -10 185 -3 44 -7 118 -10 165 -2 47
-7 137 -11 200 -4 63 -8 134 -8 158 0 23 -3 42 -6 42 -3 0 -5 28 -5 63 l0 62
43 0 c23 -1 42 2 42 5 0 3 24 6 53 7 53 3 132 11 132 13 0 1 14 3 30 4 17 2
53 6 80 10 28 4 59 9 70 11 11 1 40 6 65 10 25 4 55 8 68 8 12 1 22 4 22 7 0
4 12 7 28 7 15 1 38 4 52 7 95 22 233 48 265 50 11 1 25 4 31 8 6 4 29 10 50
13 21 2 53 8 69 11 17 4 41 8 55 9 14 1 25 4 25 5 0 1 18 4 40 6 39 3 90 11
90 14 0 2 12 3 110 14 55 7 179 16 265 21 30 1 58 3 62 4 6 1 27 61 34 101 4
22 12 55 14 58 2 1 4 11 5 22 1 11 3 21 5 23 3 3 11 39 14 67 2 14 6 32 10 40
3 8 8 26 10 40 3 14 5 25 7 25 2 0 6 26 11 63 1 12 5 22 8 22 3 0 6 12 6 28 1
15 5 38 8 52 4 14 9 38 11 53 12 79 16 105 20 127 3 14 7 48 10 75 3 28 8 62
11 77 3 15 7 51 9 80 3 29 7 73 9 98 3 25 8 77 11 115 3 39 8 90 10 115 3 25
7 83 10 130 3 47 7 97 9 113 2 15 -2 27 -8 27 -7 0 -8 3 -1 8 6 4 12 26 14 50
2 41 1 43 -36 58 -21 9 -56 22 -79 29 -44 13 -196 14 -229 1 -11 -4 -26 -10
-33 -12 -7 -2 -12 -7 -11 -11 1 -4 0 -11 -1 -15 -1 -5 -4 -12 -5 -18 -1 -5 -4
-12 -5 -15 -1 -3 -3 -13 -5 -22 -1 -10 -4 -25 -7 -33 -3 -8 -16 -49 -29 -90
-12 -41 -25 -79 -28 -85 -3 -5 -6 -12 -6 -15 -1 -10 -28 -85 -34 -95 -3 -5 -6
-12 -6 -15 0 -3 -17 -40 -38 -83 -20 -44 -37 -83 -37 -88 0 -5 -4 -9 -10 -9
-5 0 -10 -9 -10 -20 0 -11 -4 -20 -10 -20 -5 0 -10 -6 -10 -14 0 -7 -7 -19
-15 -26 -9 -7 -13 -15 -11 -18 3 -2 0 -10 -7 -18 -7 -7 -37 -50 -67 -95 -30
-45 -74 -102 -97 -126 -23 -23 -40 -43 -38 -43 3 0 -3 -8 -12 -18 -10 -11 -21
-17 -25 -15 -5 2 -8 -1 -8 -7 0 -12 -24 -40 -34 -40 -3 0 -21 -16 -40 -35 -20
-19 -38 -35 -41 -35 -4 0 -28 -18 -59 -45 -27 -24 -156 -104 -156 -98 0 5 -4
3 -8 -3 -6 -10 -90 -57 -102 -57 -3 0 -24 -11 -47 -24 -24 -13 -43 -21 -43
-17 0 3 -11 -1 -24 -9 -24 -16 -135 -52 -148 -49 -5 1 -8 -3 -8 -8 0 -6 -6
-10 -12 -9 -7 1 -20 -1 -28 -4 -8 -4 -35 -11 -60 -17 -25 -6 -54 -13 -65 -15
-11 -3 -35 -8 -54 -11 -18 -3 -43 -8 -55 -10 -11 -3 -34 -7 -51 -10 -16 -2
-40 -7 -52 -9 -20 -5 -23 -1 -24 27 -2 52 -7 125 -14 238 -4 58 -9 134 -10
170 -2 36 -4 65 -5 65 -1 0 -3 32 -5 70 -2 39 -6 120 -10 180 -4 61 -8 144
-10 185 -2 41 -4 75 -5 75 -1 0 -3 41 -5 90 -2 50 -4 91 -6 93 -6 7 -4 29 3
39 5 6 5 14 0 17 -5 3 -10 31 -11 63 -1 32 -4 92 -7 133 -8 141 -13 225 -15
278 -1 29 -6 55 -11 58 -5 3 -4 12 3 20 8 10 8 14 0 14 -7 0 -8 8 -1 24 5 13
6 26 4 29 -3 3 -7 40 -10 84 -7 124 -12 172 -20 184 -4 7 -3 10 2 7 5 -4 9 9
10 28 0 19 -2 34 -6 34 -4 0 -7 19 -7 43 0 82 -12 267 -18 277 -3 5 -1 10 5
10 6 0 8 5 4 12 -8 13 -10 39 -16 195 -2 46 -5 83 -8 83 -3 0 -5 39 -5 86 l0
86 35 13 c19 7 44 16 55 21 11 4 22 8 25 9 34 12 166 68 192 81 14 8 33 14 42
14 9 0 16 5 16 11 0 5 5 7 10 4 6 -3 10 -2 10 4 0 6 7 8 15 5 8 -4 15 -2 15 3
0 9 56 33 74 32 5 0 12 4 16 11 4 6 13 13 21 14 21 4 94 40 97 49 2 4 12 7 22
7 9 0 23 7 30 15 7 8 16 13 20 10 5 -3 11 -1 15 4 3 6 31 23 63 39 85 44 126
66 132 72 3 3 17 11 33 19 15 8 27 18 27 23 0 4 5 8 10 8 16 0 120 72 120 83
0 6 3 8 6 4 5 -5 67 38 124 86 8 6 44 36 80 65 36 30 67 58 69 64 2 5 14 13
27 18 13 5 23 13 22 17 -1 5 25 35 58 69 67 69 174 205 174 223 0 6 4 11 8 11
5 0 17 18 27 40 10 22 22 40 27 40 5 0 7 4 4 9 -4 5 -3 11 1 13 10 4 47 80 45
91 -1 4 3 7 9 7 5 0 7 5 4 10 -3 6 -2 10 2 10 5 0 9 10 10 22 1 11 8 25 15 29
7 5 10 9 6 9 -3 0 4 27 17 60 13 33 22 60 20 60 -3 0 0 12 6 28 11 27 19 60
24 97 1 11 3 20 5 20 2 0 4 12 16 100 17 118 8 517 -13 575 -3 8 -7 31 -9 50
-4 37 -8 56 -17 80 -3 8 -11 38 -18 65 -6 28 -16 56 -22 63 -5 6 -7 12 -4 12
3 0 0 12 -8 27 -8 15 -12 30 -9 35 3 4 0 8 -6 8 -7 0 -10 7 -6 15 3 8 2 15 -2
15 -9 0 -32 49 -32 67 0 7 -4 13 -8 13 -8 0 -36 60 -33 73 0 4 -3 7 -8 7 -4 0
-19 20 -32 45 -13 25 -27 45 -31 45 -5 0 -8 7 -8 15 0 8 -4 15 -8 15 -4 0 -16
15 -27 33 -10 17 -29 42 -42 54 -13 12 -23 25 -23 29 0 3 -13 19 -30 34 -16
15 -30 33 -30 39 0 6 -4 11 -8 11 -4 0 -28 19 -53 43 -24 24 -75 69 -114 100
-38 32 -80 66 -92 77 -12 11 -25 20 -28 20 -3 0 -27 16 -54 35 -26 19 -53 35
-60 35 -6 0 -11 4 -11 8 0 5 -21 20 -47 33 -27 13 -50 26 -53 29 -7 9 -186 95
-245 118 -79 32 -90 35 -97 34 -5 -1 -8 2 -8 7 0 6 -9 8 -20 6 -11 -2 -20 0
-20 5 0 4 -18 11 -40 15 -22 4 -42 11 -46 16 -3 5 -18 9 -34 9 -16 0 -31 4
-35 10 -3 5 -12 7 -20 3 -8 -3 -15 0 -15 6 0 6 -7 8 -15 5 -8 -3 -20 -2 -27 2
-7 4 -21 9 -33 11 -11 1 -27 4 -35 6 -8 2 -37 7 -65 11 -27 4 -61 10 -75 12
-14 3 -41 7 -60 9 -19 3 -60 7 -90 11 -30 3 -85 7 -123 9 -37 1 -70 5 -74 9
-7 7 -14 99 -13 159 1 6 -2 41 -5 77 -2 36 -7 100 -10 144 -2 43 -6 81 -9 83
-3 3 -1 16 4 29 5 13 6 24 2 24 -4 0 -8 21 -9 48 -3 125 -8 212 -13 212 -3 0
-5 30 -4 68 0 37 -1 72 -3 79 -4 11 -37 23 -80 28 -12 2 -26 6 -31 9 -8 5 -70
13 -157 22 -22 2 -55 5 -73 7 -18 2 -35 0 -38 -4 -2 -4 -17 -4 -32 1 -16 4
-36 4 -45 -1z m672 -1373 c31 -3 70 -10 88 -15 17 -5 34 -7 37 -4 2 3 11 1 18
-3 13 -8 26 -12 63 -17 11 -2 31 -9 45 -17 14 -7 26 -13 27 -13 11 4 43 -12
43 -21 0 -6 5 -4 10 4 6 9 10 10 10 3 0 -6 17 -17 38 -24 20 -6 39 -15 42 -18
3 -4 26 -18 53 -31 26 -14 47 -28 47 -32 0 -5 6 -8 13 -8 7 0 23 -9 35 -20 12
-11 24 -20 28 -20 4 0 20 -13 35 -30 16 -16 32 -30 37 -30 8 0 144 -132 182
-176 54 -64 90 -113 90 -123 0 -6 5 -11 10 -11 6 0 10 -6 10 -14 0 -8 3 -16 8
-18 13 -5 82 -145 75 -152 -3 -3 -2 -6 4 -6 6 0 16 -21 23 -47 7 -27 16 -52
19 -58 8 -14 14 -45 15 -77 1 -14 4 -24 8 -22 4 3 7 -4 7 -13 8 -234 7 -289
-4 -349 -7 -38 -11 -72 -8 -76 2 -5 -1 -8 -6 -8 -6 0 -11 -9 -11 -20 0 -12 -7
-34 -15 -50 -9 -17 -15 -31 -14 -32 0 -2 -4 -16 -10 -31 -6 -16 -11 -33 -11
-38 0 -5 -5 -9 -11 -9 -6 0 -8 -7 -5 -16 3 -8 2 -13 -2 -10 -4 2 -16 -16 -27
-40 -11 -24 -23 -44 -27 -44 -5 0 -8 -7 -8 -15 0 -8 -5 -15 -11 -15 -5 0 -7
-4 -4 -10 3 -5 2 -10 -3 -10 -5 0 -21 -17 -34 -37 -14 -21 -54 -69 -90 -106
-35 -37 -62 -70 -59 -72 2 -3 -1 -5 -8 -5 -7 0 -30 -17 -51 -37 -20 -21 -52
-49 -70 -63 -18 -14 -41 -33 -51 -42 -11 -10 -19 -16 -19 -12 0 6 -74 -48 -78
-58 -2 -5 -8 -8 -13 -8 -5 0 -31 -15 -58 -34 -27 -19 -52 -32 -55 -29 -3 4 -6
1 -6 -5 0 -7 -6 -12 -13 -12 -7 0 -23 -9 -34 -19 -12 -11 -24 -17 -27 -14 -3
4 -6 1 -6 -6 0 -7 -4 -9 -10 -6 -5 3 -10 2 -10 -4 0 -5 -13 -12 -30 -16 -16
-4 -30 -10 -30 -15 0 -6 -36 -21 -49 -19 -2 0 -7 -4 -11 -11 -4 -6 -13 -12
-21 -14 -8 -1 -33 -12 -56 -24 -23 -12 -44 -22 -45 -22 -3 0 -6 45 -12 150 -1
19 -6 41 -10 49 -6 10 -5 12 2 7 7 -4 12 -3 12 3 0 5 -5 13 -10 16 -7 4 -7 12
0 24 5 10 6 21 3 25 -6 6 -14 106 -16 224 -1 34 -5 62 -10 62 -4 0 -3 9 3 20
6 11 7 20 3 20 -5 0 -9 28 -9 63 -1 34 -4 103 -7 152 -9 118 -19 298 -21 355
-1 25 -5 51 -9 58 -5 7 -3 12 3 12 6 0 8 5 5 10 -7 11 -16 132 -18 257 -1 40
-6 73 -11 73 -5 0 -3 6 3 14 7 8 8 16 4 19 -4 3 -8 48 -8 100 0 52 -3 93 -6
91 -3 -1 -5 26 -5 62 1 36 -1 67 -5 69 -7 5 -5 37 4 52 4 6 3 14 -1 17 -5 3
-10 36 -12 73 -1 37 -3 88 -5 113 -2 25 -6 102 -10 171 l-7 126 43 -3 c24 -1
68 -5 98 -8z m-383 -3738 c8 -163 10 -183 19 -197 5 -10 4 -12 -3 -7 -7 4 -12
3 -12 -3 0 -5 5 -13 10 -16 7 -4 7 -12 0 -24 -5 -10 -6 -21 -3 -25 3 -3 7 -35
8 -70 1 -35 5 -68 9 -75 4 -6 2 -11 -4 -11 -6 0 -8 -5 -4 -12 4 -7 9 -44 11
-82 2 -39 5 -100 7 -136 2 -36 7 -117 10 -180 4 -63 9 -153 12 -200 3 -47 6
-115 7 -152 1 -38 6 -68 11 -68 4 0 3 -6 -3 -13 -6 -8 -8 -17 -4 -21 4 -4 7
-38 8 -76 1 -38 4 -72 8 -76 4 -4 2 -13 -4 -21 -6 -7 -8 -13 -3 -13 5 0 10
-35 11 -78 0 -42 4 -92 7 -110 5 -24 3 -32 -5 -26 -9 5 -9 3 -3 -7 5 -8 10
-27 10 -44 1 -16 5 -77 8 -135 4 -58 9 -145 12 -195 2 -49 7 -121 9 -160 3
-38 6 -97 8 -130 1 -33 6 -65 10 -72 4 -6 3 -14 -2 -18 -6 -3 -8 -12 -5 -20 3
-7 7 -50 8 -94 1 -44 5 -84 9 -87 4 -4 2 -13 -4 -21 -6 -7 -8 -13 -3 -13 11 0
12 -60 2 -76 -11 -16 -203 -5 -348 20 -14 3 -43 8 -65 11 -22 4 -48 7 -57 7
-10 -1 -18 3 -18 9 0 5 -3 8 -7 8 -5 -1 -10 -1 -13 1 -3 1 -15 3 -28 6 -66 12
-230 78 -244 98 -4 6 -8 7 -8 3 0 -9 -92 42 -102 58 -5 6 -8 6 -8 0 0 -6 -3
-6 -8 0 -4 6 -20 19 -35 28 -85 54 -236 211 -276 286 -8 14 -17 28 -20 31 -13
10 -51 81 -51 96 0 8 -4 14 -9 14 -9 0 -24 38 -22 53 1 4 -5 18 -14 30 -8 12
-15 31 -15 44 0 12 -4 24 -9 28 -6 3 -13 26 -17 50 -3 25 -10 47 -14 50 -4 2
-6 16 -5 30 2 14 0 25 -5 25 -4 0 -8 15 -8 33 0 17 -1 34 -2 37 -12 35 -21
159 -20 285 1 165 3 189 14 197 7 5 7 8 -2 8 -7 0 -11 3 -8 8 4 7 16 73 21
122 2 14 4 26 5 28 1 1 3 5 4 10 16 69 30 119 37 128 5 6 6 14 2 17 -3 4 0 13
7 22 7 8 10 15 6 15 -4 0 1 11 10 24 8 14 15 27 15 30 -1 13 52 126 59 126 4
0 11 11 14 24 3 14 12 31 19 38 7 7 23 29 36 48 13 19 34 44 45 56 12 12 37
39 58 60 20 21 58 57 84 79 26 22 56 48 66 58 10 9 18 15 18 12 0 -3 10 3 22
15 38 35 200 143 268 177 19 10 37 21 40 24 7 8 44 22 53 21 4 -1 7 3 7 8 0 6
4 10 10 10 5 0 46 18 90 39 44 22 83 40 85 40 3 1 21 8 41 16 20 8 39 15 41
15 3 0 19 6 36 14 39 17 61 24 65 20 2 -1 6 -40 8 -86z"/>
</g>
</svg>
